<?xml version="1.0" encoding="UTF-8" standalone="no"?>
<!-- Generator: Adobe Illustrator 16.0.0, SVG Export Plug-In . SVG Version: 6.00 Build 0)  -->

<svg
   xmlns:dc="http://purl.org/dc/elements/1.1/"
   xmlns:cc="http://creativecommons.org/ns#"
   xmlns:rdf="http://www.w3.org/1999/02/22-rdf-syntax-ns#"
   xmlns:svg="http://www.w3.org/2000/svg"
   xmlns="http://www.w3.org/2000/svg"
   xmlns:sodipodi="http://sodipodi.sourceforge.net/DTD/sodipodi-0.dtd"
   xmlns:inkscape="http://www.inkscape.org/namespaces/inkscape"
   version="1.1"
   id="Capa_1"
   x="0px"
   y="0px"
   width="48"
   height="48"
   viewBox="0 0 48 48"
   xml:space="preserve"
   inkscape:version="0.91 r13725"
   sodipodi:docname="about-local.svg"><metadata
     id="metadata41"><rdf:RDF><cc:Work
         rdf:about=""><dc:format>image/svg+xml</dc:format><dc:type
           rdf:resource="http://purl.org/dc/dcmitype/StillImage" /><dc:title></dc:title></cc:Work></rdf:RDF></metadata><defs
     id="defs39" /><sodipodi:namedview
     pagecolor="#ffffff"
     bordercolor="#666666"
     borderopacity="1"
     objecttolerance="10"
     gridtolerance="10"
     guidetolerance="10"
     inkscape:pageopacity="0"
     inkscape:pageshadow="2"
     inkscape:window-width="1366"
     inkscape:window-height="719"
     id="namedview37"
     showgrid="false"
     inkscape:zoom="4.3628026"
     inkscape:cx="50.488746"
     inkscape:cy="40.115865"
     inkscape:window-x="0"
     inkscape:window-y="27"
     inkscape:window-maximized="1"
     inkscape:current-layer="Capa_1" /><g
     id="g3"
     style="opacity:0.3"
     transform="matrix(0.07843139,0,0,0.10024445,-5.7758601e-4,-6.1766718)"><path
       d="m 516.316,337.52 94.233,193.581 c 3.832,7.873 -0.196,14.314 -8.952,14.314 l -591.195,0 c -8.756,0 -12.785,-6.441 -8.952,-14.314 L 95.684,337.52 c 1.499,-3.079 5.528,-5.599 8.952,-5.599 l 80.801,0 c 2.49,0 5.853,1.559 7.483,3.442 5.482,6.335 11.066,12.524 16.634,18.65 5.288,5.815 10.604,11.706 15.878,17.735 l -95.891,0 c -3.425,0 -7.454,2.519 -8.952,5.599 l -62.426,128.242 495.67,0 -62.421,-128.242 c -1.498,-3.08 -5.527,-5.599 -8.953,-5.599 l -96.108,0 c 5.273,-6.029 10.591,-11.92 15.879,-17.735 5.585,-6.144 11.2,-12.321 16.695,-18.658 1.628,-1.878 4.984,-3.434 7.47,-3.434 l 80.971,0 c 3.423,0 7.451,2.518 8.95,5.599 z M 444.541,205.228 c 0,105.776 -88.058,125.614 -129.472,227.265 -3.365,8.26 -14.994,8.218 -18.36,-0.04 C 259.35,340.802 184.071,315.669 169.668,234.021 155.487,153.642 211.139,74.906 292.397,67.225 c 82.64,-7.812 152.144,56.979 152.144,138.003 z m -65.427,0 c 0,-40.436 -32.779,-73.216 -73.216,-73.216 -40.437,0 -73.216,32.78 -73.216,73.216 0,40.437 32.779,73.216 73.216,73.216 40.437,0 73.216,-32.779 73.216,-73.216 z"
       id="path5"
       inkscape:connector-curvature="0" /></g><g
     id="g7"
     style="opacity:0.3"
     transform="translate(0,-564)" /><g
     id="g9"
     style="opacity:0.3"
     transform="translate(0,-564)" /><g
     id="g11"
     style="opacity:0.3"
     transform="translate(0,-564)" /><g
     id="g13"
     style="opacity:0.3"
     transform="translate(0,-564)" /><g
     id="g15"
     style="opacity:0.3"
     transform="translate(0,-564)" /><g
     id="g17"
     style="opacity:0.3"
     transform="translate(0,-564)" /><g
     id="g19"
     style="opacity:0.3"
     transform="translate(0,-564)" /><g
     id="g21"
     style="opacity:0.3"
     transform="translate(0,-564)" /><g
     id="g23"
     style="opacity:0.3"
     transform="translate(0,-564)" /><g
     id="g25"
     style="opacity:0.3"
     transform="translate(0,-564)" /><g
     id="g27"
     style="opacity:0.3"
     transform="translate(0,-564)" /><g
     id="g29"
     style="opacity:0.3"
     transform="translate(0,-564)" /><g
     id="g31"
     style="opacity:0.3"
     transform="translate(0,-564)" /><g
     id="g33"
     style="opacity:0.3"
     transform="translate(0,-564)" /><g
     id="g35"
     style="opacity:0.3"
     transform="translate(0,-564)" /></svg>