<?xml version="1.0" encoding="UTF-8" standalone="no"?>
<!-- Generator: Adobe Illustrator 16.0.0, SVG Export Plug-In . SVG Version: 6.00 Build 0)  -->

<svg
   xmlns:dc="http://purl.org/dc/elements/1.1/"
   xmlns:cc="http://creativecommons.org/ns#"
   xmlns:rdf="http://www.w3.org/1999/02/22-rdf-syntax-ns#"
   xmlns:svg="http://www.w3.org/2000/svg"
   xmlns="http://www.w3.org/2000/svg"
   xmlns:sodipodi="http://sodipodi.sourceforge.net/DTD/sodipodi-0.dtd"
   xmlns:inkscape="http://www.inkscape.org/namespaces/inkscape"
   version="1.1"
   id="Layer_1"
   x="0px"
   y="0px"
   width="48"
   height="48"
   viewBox="0 0 48 48"
   enable-background="new 0 0 512 512"
   xml:space="preserve"
   inkscape:version="0.91 r13725"
   sodipodi:docname="about-students.svg"><metadata
     id="metadata9"><rdf:RDF><cc:Work
         rdf:about=""><dc:format>image/svg+xml</dc:format><dc:type
           rdf:resource="http://purl.org/dc/dcmitype/StillImage" /><dc:title></dc:title></cc:Work></rdf:RDF></metadata><defs
     id="defs7" /><sodipodi:namedview
     pagecolor="#ffffff"
     bordercolor="#666666"
     borderopacity="1"
     objecttolerance="10"
     gridtolerance="10"
     guidetolerance="10"
     inkscape:pageopacity="0"
     inkscape:pageshadow="2"
     inkscape:window-width="1366"
     inkscape:window-height="719"
     id="namedview5"
     showgrid="false"
     inkscape:zoom="5.2149125"
     inkscape:cx="31.143787"
     inkscape:cy="36.418813"
     inkscape:window-x="0"
     inkscape:window-y="27"
     inkscape:window-maximized="1"
     inkscape:current-layer="Layer_1" /><path
     d="m 48.16821,24.575273 0,24 -27.428571,0 c -3.786858,0 -6.857143,-2.6865 -6.857143,-6 l 0,-21 c 0,-3.3135 3.070285,-6 6.857143,-6 l 24,0 0,3 0,3 -3.428572,0 0,-3 -20.571428,0 c -1.893429,0 -3.428572,1.34184 -3.428572,3 0,1.65816 1.535143,3 3.428572,3 l 27.428571,0 z m -37.714286,-3 c 0,-4.96294 4.613893,-9 10.285715,-9 l 13.714285,0 0,-2.9999997 -27.428571,0 c -1.893429,0 -3.428572,-1.34184 -3.428572,-3 0,-1.65816 1.535143,-3 3.428572,-3 l 20.571428,0 0,3 3.428572,0 0,-3 0,-2.99999998 -24,0 c -3.786857,0 -6.85714307,2.68649998 -6.85714307,5.99999998 l 0,20.9999997 c 0,3.3135 3.07028607,6 6.85714307,6 l 3.428571,0 0,-12 z"
     id="path3"
     inkscape:connector-curvature="0"
     style="opacity:0.3" /></svg>