<?xml version="1.0" encoding="UTF-8" standalone="no"?>
<svg
   xmlns:dc="http://purl.org/dc/elements/1.1/"
   xmlns:cc="http://creativecommons.org/ns#"
   xmlns:rdf="http://www.w3.org/1999/02/22-rdf-syntax-ns#"
   xmlns:svg="http://www.w3.org/2000/svg"
   xmlns="http://www.w3.org/2000/svg"
   xmlns:sodipodi="http://sodipodi.sourceforge.net/DTD/sodipodi-0.dtd"
   xmlns:inkscape="http://www.inkscape.org/namespaces/inkscape"
   version="1.1"
   x="0px"
   y="0px"
   width="48"
   height="48"
   viewBox="0 0 48 48"
   xml:space="preserve"
   id="svg2"
   inkscape:version="0.91 r13725"
   sodipodi:docname="about-courses.svg"><metadata
     id="metadata15"><rdf:RDF><cc:Work
         rdf:about=""><dc:format>image/svg+xml</dc:format><dc:type
           rdf:resource="http://purl.org/dc/dcmitype/StillImage" /><dc:title></dc:title></cc:Work></rdf:RDF></metadata><defs
     id="defs13" /><sodipodi:namedview
     pagecolor="#ffffff"
     bordercolor="#666666"
     borderopacity="1"
     objecttolerance="10"
     gridtolerance="10"
     guidetolerance="10"
     inkscape:pageopacity="0"
     inkscape:pageshadow="2"
     inkscape:window-width="1366"
     inkscape:window-height="719"
     id="namedview11"
     showgrid="false"
     inkscape:zoom="7.8666667"
     inkscape:cx="24.406779"
     inkscape:cy="36.683298"
     inkscape:window-x="0"
     inkscape:window-y="27"
     inkscape:window-maximized="1"
     inkscape:current-layer="svg2" /><g
     id="home"
     style="opacity:0.3"
     transform="matrix(0.13333601,0,0,0.15117872,-7.7388266,-11.882027)"><path
       d="m 400.336,268.281 c -2.736,2.921 -7.379,3.081 -10.299,0.346 L 240.668,129.156 c -2.92,-2.735 -7.727,-2.735 -10.656,0 L 84.389,264.907 c -2.938,2.749 -7.562,2.576 -10.299,-0.357 L 59.17,248.547 c -2.734,-2.921 -2.57,-7.563 0.359,-10.294 l 170.5,-158.955 c 2.938,-2.735 7.736,-2.735 10.67,0.018 L 414.91,241.985 c 2.924,2.735 3.094,7.378 0.344,10.312 l -14.918,15.984 z"
       id="path5"
       inkscape:connector-curvature="0" /><path
       d="m 235.333,154.331 -122.756,114.434 0,118.645 c 0,4.029 3.312,7.344 7.352,7.344 l 80.68,0 0,-102.863 c 0,-4.03 3.311,-7.344 7.354,-7.344 l 58.771,0 c 4.047,0 7.344,3.313 7.344,7.344 l 0,102.862 80.943,0 c 4.047,0 7.344,-3.314 7.344,-7.344 l 0,-114.455 -127.032,-118.623 z"
       id="path7"
       inkscape:connector-curvature="0" /><path
       d="m 361.881,94.593 c 0,-4.043 -3.314,-7.356 -7.361,-7.356 l -44.076,0 c -4.031,0 -7.344,3.313 -7.344,7.356 l 0,12.831 58.781,55.342 0,-68.173 z"
       id="path9"
       inkscape:connector-curvature="0" /></g></svg>