<?xml version="1.0" encoding="UTF-8" standalone="no"?>
<!-- Generator: Adobe Illustrator 18.0.0, SVG Export Plug-In . SVG Version: 6.00 Build 0)  -->

<svg
   xmlns:dc="http://purl.org/dc/elements/1.1/"
   xmlns:cc="http://creativecommons.org/ns#"
   xmlns:rdf="http://www.w3.org/1999/02/22-rdf-syntax-ns#"
   xmlns:svg="http://www.w3.org/2000/svg"
   xmlns="http://www.w3.org/2000/svg"
   xmlns:sodipodi="http://sodipodi.sourceforge.net/DTD/sodipodi-0.dtd"
   xmlns:inkscape="http://www.inkscape.org/namespaces/inkscape"
   version="1.1"
   id="Layer_1"
   x="0px"
   y="0px"
   width="11px"
   height="6px"
   viewBox="0 0 11 6"
   style="enable-background:new 0 0 11 6;"
   xml:space="preserve"
   inkscape:version="0.91 r13725"
   sodipodi:docname="arrow-down-blue.svg"><metadata
     id="metadata9"><rdf:RDF><cc:Work
         rdf:about=""><dc:format>image/svg+xml</dc:format><dc:type
           rdf:resource="http://purl.org/dc/dcmitype/StillImage" /></cc:Work></rdf:RDF></metadata><defs
     id="defs7" /><sodipodi:namedview
     pagecolor="#ffffff"
     bordercolor="#666666"
     borderopacity="1"
     objecttolerance="10"
     gridtolerance="10"
     guidetolerance="10"
     inkscape:pageopacity="0"
     inkscape:pageshadow="2"
     inkscape:window-width="1366"
     inkscape:window-height="719"
     id="namedview5"
     showgrid="false"
     inkscape:zoom="32.272727"
     inkscape:cx="1.9366197"
     inkscape:cy="3"
     inkscape:window-x="0"
     inkscape:window-y="27"
     inkscape:window-maximized="1"
     inkscape:current-layer="Layer_1" /><path
     style="fill:#337ab7;fill-opacity:1"
     d="M0,0.942C0,0.701,0.092,0.46,0.276,0.276c0.368-0.368,0.964-0.368,1.332,0  c0,0,3.237,3.004,3.564,3.332s0.653,0.003,0.653,0.003l3.567-3.335c0.368-0.368,0.964-0.368,1.332,0  c0.368,0.367,0.368,0.964,0,1.331L6.63,5.47C6.5,5.599,6.107,5.993,5.514,6C4.893,5.993,4.5,5.599,4.37,5.47L0.276,1.607  C0.092,1.423,0,1.183,0,0.942z"
     id="path3" /></svg>