<?xml version="1.0" encoding="UTF-8" standalone="no"?>
<!-- Generator: Adobe Illustrator 16.0.0, SVG Export Plug-In . SVG Version: 6.00 Build 0)  -->

<svg
   xmlns:dc="http://purl.org/dc/elements/1.1/"
   xmlns:cc="http://creativecommons.org/ns#"
   xmlns:rdf="http://www.w3.org/1999/02/22-rdf-syntax-ns#"
   xmlns:svg="http://www.w3.org/2000/svg"
   xmlns="http://www.w3.org/2000/svg"
   xmlns:sodipodi="http://sodipodi.sourceforge.net/DTD/sodipodi-0.dtd"
   xmlns:inkscape="http://www.inkscape.org/namespaces/inkscape"
   version="1.1"
   id="Capa_1"
   x="0px"
   y="0px"
   width="400"
   height="314.3045"
   viewBox="0 58.445 400.00001 314.3045"
   enable-background="new 0 58.445 595.279 812"
   xml:space="preserve"
   inkscape:version="0.91 r13725"
   sodipodi:docname="no-comments.svg"><metadata
     id="metadata15"><rdf:RDF><cc:Work
         rdf:about=""><dc:format>image/svg+xml</dc:format><dc:type
           rdf:resource="http://purl.org/dc/dcmitype/StillImage" /><dc:title></dc:title></cc:Work></rdf:RDF></metadata><defs
     id="defs13" /><sodipodi:namedview
     pagecolor="#ffffff"
     bordercolor="#666666"
     borderopacity="1"
     objecttolerance="10"
     gridtolerance="10"
     guidetolerance="10"
     inkscape:pageopacity="0"
     inkscape:pageshadow="2"
     inkscape:window-width="1366"
     inkscape:window-height="719"
     id="namedview11"
     showgrid="false"
     fit-margin-top="0"
     fit-margin-left="0"
     fit-margin-right="0"
     fit-margin-bottom="0"
     inkscape:zoom="0.58128079"
     inkscape:cx="303.0572"
     inkscape:cy="185.82376"
     inkscape:window-x="0"
     inkscape:window-y="27"
     inkscape:window-maximized="1"
     inkscape:current-layer="Capa_1" /><g
     id="g3"
     transform="matrix(0.68106785,0,0,0.68106785,-2.9381267,-70.12767)"
     style="fill:#000000;fill-opacity:0.06289309;opacity:1"><g
       id="g5"
       style="fill:#000000;fill-opacity:0.06289309"><path
         d="m 350.906,501.938 c 35.501,-14.968 63.526,-35.339 84.062,-61.125 20.535,-25.781 30.803,-53.855 30.803,-84.227 0,-30.372 -10.268,-58.449 -30.81,-84.23 -20.534,-25.781 -48.556,-46.156 -84.062,-61.126 -35.506,-14.968 -74.123,-22.449 -115.858,-22.449 -41.731,0 -80.35,7.486 -115.857,22.449 -35.504,14.969 -63.526,35.344 -84.062,61.126 -20.537,25.787 -30.808,53.858 -30.808,84.231 0,25.999 7.769,50.481 23.281,73.422 15.51,22.936 36.815,42.278 63.906,58.007 -2.184,5.248 -4.423,10.048 -6.717,14.425 -2.296,4.369 -5.025,8.57 -8.196,12.616 -3.168,4.046 -5.624,7.212 -7.373,9.499 -1.748,2.293 -4.588,5.524 -8.523,9.667 -3.934,4.152 -6.448,6.884 -7.539,8.191 0,-0.22 -0.437,0.275 -1.312,1.477 -0.876,1.202 -1.368,1.745 -1.475,1.645 -0.11,-0.119 -0.548,0.428 -1.312,1.629 -0.765,1.202 -1.148,1.803 -1.148,1.803 l -0.822,1.635 c -0.323,0.659 -0.546,1.305 -0.653,1.964 -0.111,0.652 -0.166,1.368 -0.166,2.13 0,0.763 0.109,1.469 0.331,2.128 0.437,2.836 1.694,5.126 3.769,6.883 2.074,1.744 4.312,2.617 6.717,2.617 l 0.984,0 c 10.922,-1.529 20.32,-3.278 28.184,-5.246 33.648,-8.735 64.022,-22.726 91.113,-41.951 19.663,3.497 38.891,5.244 57.681,5.244 41.737,0.014 80.358,-7.467 115.862,-22.434 z"
         id="path7"
         inkscape:connector-curvature="0"
         style="fill:#000000;fill-opacity:0.06289309" /><path
         d="m 568.356,514.061 c 15.518,-22.831 23.271,-47.351 23.271,-73.571 0,-26.877 -8.204,-52.02 -24.584,-75.396 -16.389,-23.374 -38.68,-42.824 -66.861,-58.336 5.021,16.386 7.533,32.99 7.533,49.818 0,29.275 -7.311,57.024 -21.959,83.246 -14.639,26.215 -35.615,49.373 -62.926,69.478 -25.345,18.353 -54.187,32.442 -86.527,42.278 -32.33,9.827 -66.089,14.748 -101.267,14.748 -6.553,0 -16.168,-0.434 -28.839,-1.306 43.915,28.834 95.482,43.259 154.69,43.259 18.793,0 38.019,-1.751 57.685,-5.246 27.092,19.231 57.467,33.209 91.111,41.955 7.866,1.974 17.262,3.715 28.188,5.244 2.62,0.22 5.029,-0.547 7.212,-2.296 2.186,-1.747 3.607,-4.143 4.258,-7.199 -0.101,-1.312 0,-2.031 0.331,-2.136 0.322,-0.104 0.268,-0.816 -0.166,-2.126 -0.431,-1.313 -0.651,-1.969 -0.651,-1.969 l -0.817,-1.635 c -0.228,-0.433 -0.597,-1.038 -1.146,-1.801 -0.547,-0.755 -0.981,-1.312 -1.312,-1.637 -0.321,-0.327 -0.809,-0.876 -1.47,-1.634 -0.651,-0.758 -1.092,-1.253 -1.312,-1.473 -1.092,-1.312 -3.604,-4.043 -7.535,-8.194 -3.937,-4.148 -6.771,-7.37 -8.52,-9.664 -1.75,-2.296 -4.208,-5.462 -7.375,-9.508 -3.165,-4.039 -5.9,-8.245 -8.195,-12.616 -2.294,-4.37 -4.533,-9.177 -6.718,-14.419 27.091,-15.743 48.391,-35.025 63.901,-57.864 z"
         id="path9"
         inkscape:connector-curvature="0"
         style="fill:#000000;fill-opacity:0.06289309" /></g></g></svg>